Wavefont-Black.ufo
<glyph name="_2" format="2">
  <advance width="200.0"/>
  <unicode hex="0102"/>
  <unicode hex="0062"/>
  <outline>
    <contour>
      <point x="10.0" y="20.0" type="curve" smooth="yes"/>
      <point x="190.0" y="20.0" type="line"/>
      <point x="195.5" y="20.0"/>
      <point x="200.0" y="15.5"/>
      <point x="200.0" y="10.0" type="curve" smooth="yes"/>
      <point x="200.0" y="10.0" type="line"/>
      <point x="200.0" y="4.5"/>
      <point x="195.5" y="0.0"/>
      <point x="190.0" y="0.0" type="curve" smooth="yes"/>
      <point x="10.0" y="0.0" type="line"/>
      <point x="4.5" y="0.0"/>
      <point x="0.0" y="4.5"/>
      <point x="0.0" y="10.0" type="curve" smooth="yes"/>
      <point x="0.0" y="10.0" type="line"/>
      <point x="0.0" y="15.5"/>
      <point x="4.5" y="20.0"/>
    </contour>
  </outline>
</glyph>
<glyph name="_3" format="2">
  <advance width="200.0"/>
  <unicode hex="0103"/>
  <outline>
    <contour>
      <point x="15.0" y="30.0" type="curve" smooth="yes"/>
      <point x="185.0" y="30.0" type="line"/>
      <point x="193.25" y="30.0"/>
      <point x="200.0" y="23.25"/>
      <point x="200.0" y="15.0" type="curve" smooth="yes"/>
      <point x="200.0" y="15.0" type="line"/>
      <point x="200.0" y="6.75"/>
      <point x="193.25" y="0.0"/>
      <point x="185.0" y="0.0" type="curve" smooth="yes"/>
      <point x="15.0" y="0.0" type="line"/>
      <point x="6.75" y="0.0"/>
      <point x="0.0" y="6.75"/>
      <point x="0.0" y="15.0" type="curve" smooth="yes"/>
      <point x="0.0" y="15.0" type="line"/>
      <point x="0.0" y="23.25"/>
      <point x="6.75" y="30.0"/>
    </contour>
  </outline>
</glyph>
<glyph name="_6" format="2">
  <advance width="200.0"/>
  <unicode hex="0106"/>
  <unicode hex="0064"/>
  <outline>
    <contour>
      <point x="30.0" y="60.0" type="curve" smooth="yes"/>
      <point x="170.0" y="60.0" type="line"/>
      <point x="186.5" y="60.0"/>
      <point x="200.0" y="46.5"/>
      <point x="200.0" y="30.0" type="curve" smooth="yes"/>
      <point x="200.0" y="30.0" type="line"/>
      <point x="200.0" y="13.5"/>
      <point x="186.5" y="0.0"/>
      <point x="170.0" y="0.0" type="curve" smooth="yes"/>
      <point x="30.0" y="0.0" type="line"/>
      <point x="13.5" y="0.0"/>
      <point x="0.0" y="13.5"/>
      <point x="0.0" y="30.0" type="curve" smooth="yes"/>
      <point x="0.0" y="30.0" type="line"/>
      <point x="0.0" y="46.5"/>
      <point x="13.5" y="60.0"/>
    </contour>
  </outline>
</glyph>
<glyph name="_7" format="2">
  <advance width="200.0"/>
  <unicode hex="0107"/>
  <outline>
    <contour>
      <point x="35.0" y="70.0" type="curve" smooth="yes"/>
      <point x="165.0" y="70.0" type="line"/>
      <point x="184.25" y="70.0"/>
      <point x="200.0" y="54.25"/>
      <point x="200.0" y="35.0" type="curve" smooth="yes"/>
      <point x="200.0" y="35.0" type="line"/>
      <point x="200.0" y="15.75"/>
      <point x="184.25" y="0.0"/>
      <point x="165.0" y="0.0" type="curve" smooth="yes"/>
      <point x="35.0" y="0.0" type="line"/>
      <point x="15.75" y="0.0"/>
      <point x="0.0" y="15.75"/>
      <point x="0.0" y="35.0" type="curve" smooth="yes"/>
      <point x="0.0" y="35.0" type="line"/>
      <point x="0.0" y="54.25"/>
      <point x="15.75" y="70.0"/>
    </contour>
  </outline>
</glyph>
<glyph name="_11" format="2">
  <advance width="200.0"/>
  <unicode hex="010B"/>
  <outline>
    <contour>
      <point x="55.0" y="110.0" type="curve" smooth="yes"/>
      <point x="145.0" y="110.0" type="line"/>
      <point x="175.25" y="110.0"/>
      <point x="200.0" y="85.25"/>
      <point x="200.0" y="55.0" type="curve" smooth="yes"/>
      <point x="200.0" y="55.0" type="line"/>
      <point x="200.0" y="24.75"/>
      <point x="175.25" y="0.0"/>
      <point x="145.0" y="0.0" type="curve" smooth="yes"/>
      <point x="55.0" y="0.0" type="line"/>
      <point x="24.75" y="0.0"/>
      <point x="0.0" y="24.75"/>
      <point x="0.0" y="55.0" type="curve" smooth="yes"/>
      <point x="0.0" y="55.0" type="line"/>
      <point x="0.0" y="85.25"/>
      <point x="24.75" y="110.0"/>
    </contour>
  </outline>
</glyph>
<glyph name="_12" format="2">
  <advance width="200.0"/>
  <unicode hex="010C"/>
  <unicode hex="0067"/>
  <outline>
    <contour>
      <point x="60.0" y="120.0" type="curve" smooth="yes"/>
      <point x="140.0" y="120.0" type="line"/>
      <point x="173.20408163265307" y="120.0"/>
      <point x="200.0" y="93.0"/>
      <point x="200.0" y="60.0" type="curve" smooth="yes"/>
      <point x="200.0" y="60.0" type="line"/>
      <point x="200.0" y="26.0"/>
      <point x="173.20408163265307" y="0.0"/>
      <point x="140.0" y="0.0" type="curve" smooth="yes"/>
      <point x="60.0" y="0.0" type="line"/>
      <point x="26.0" y="0.0"/>
      <point x="0.0" y="26.0"/>
      <point x="0.0" y="60.0" type="curve" smooth="yes"/>
      <point x="0.0" y="60.0" type="line"/>
      <point x="0.0" y="93.0"/>
      <point x="26.0" y="120.0"/>
    </contour>
  </outline>
</glyph>
<glyph name="_13" format="2">
  <advance width="200.0"/>
  <unicode hex="010D"/>
  <outline>
    <contour>
      <point x="65.0" y="130.0" type="curve" smooth="yes"/>
      <point x="135.0" y="130.0" type="line"/>
      <point x="170.75" y="130.0"/>
      <point x="200.0" y="100.75"/>
      <point x="200.0" y="65.0" type="curve" smooth="yes"/>
      <point x="200.0" y="65.0" type="line"/>
      <point x="200.0" y="29.25"/>
      <point x="170.75" y="0.0"/>
      <point x="135.0" y="0.0" type="curve" smooth="yes"/>
      <point x="65.0" y="0.0" type="line"/>
      <point x="29.25" y="0.0"/>
      <point x="0.0" y="29.25"/>
      <point x="0.0" y="65.0" type="curve" smooth="yes"/>
      <point x="0.0" y="65.0" type="line"/>
      <point x="0.0" y="100.75"/>
      <point x="29.25" y="130.0"/>
    </contour>
  </outline>
</glyph>
<glyph name="_14" format="2">
  <advance width="200.0"/>
  <unicode hex="010E"/>
  <unicode hex="2582"/>
  <unicode hex="0068"/>
  <outline>
    <contour>
      <point x="70.0" y="140.0" type="curve" smooth="yes"/>
      <point x="130.0" y="140.0" type="line"/>
      <point x="168.5" y="140.0"/>
      <point x="200.0" y="108.5"/>
      <point x="200.0" y="70.0" type="curve" smooth="yes"/>
      <point x="200.0" y="70.0" type="line"/>
      <point x="200.0" y="31.5"/>
      <point x="168.5" y="0.0"/>
      <point x="130.0" y="0.0" type="curve" smooth="yes"/>
      <point x="70.0" y="0.0" type="line"/>
      <point x="31.5" y="0.0"/>
      <point x="0.0" y="31.5"/>
      <point x="0.0" y="70.0" type="curve" smooth="yes"/>
      <point x="0.0" y="70.0" type="line"/>
      <point x="0.0" y="108.5"/>
      <point x="31.5" y="140.0"/>
    </contour>
  </outline>
</glyph>
<glyph name="_15" format="2">
  <advance width="200.0"/>
  <unicode hex="010F"/>
  <outline>
    <contour>
      <point x="75.0" y="150.0" type="curve" smooth="yes"/>
      <point x="125.0" y="150.0" type="line"/>
      <point x="166.25" y="150.0"/>
      <point x="200.0" y="116.25"/>
      <point x="200.0" y="75.0" type="curve" smooth="yes"/>
      <point x="200.0" y="75.0" type="line"/>
      <point x="200.0" y="33.75"/>
      <point x="166.25" y="0.0"/>
      <point x="125.0" y="0.0" type="curve" smooth="yes"/>
      <point x="75.0" y="0.0" type="line"/>
      <point x="33.75" y="0.0"/>
      <point x="0.0" y="33.75"/>
      <point x="0.0" y="75.0" type="curve" smooth="yes"/>
      <point x="0.0" y="75.0" type="line"/>
      <point x="0.0" y="116.25"/>
      <point x="33.75" y="150.0"/>
    </contour>
  </outline>
</glyph>
<glyph name="_16" format="2">
  <advance width="200.0"/>
  <unicode hex="0110"/>
  <unicode hex="0069"/>
  <outline>
    <contour>
      <point x="80.0" y="160.0" type="curve" smooth="yes"/>
      <point x="120.0" y="160.0" type="line"/>
      <point x="164.0" y="160.0"/>
      <point x="200.0" y="124.0"/>
      <point x="200.0" y="80.0" type="curve" smooth="yes"/>
      <point x="200.0" y="80.0" type="line"/>
      <point x="200.0" y="36.0"/>
      <point x="164.0" y="0.0"/>
      <point x="120.0" y="0.0" type="curve" smooth="yes"/>
      <point x="80.0" y="0.0" type="line"/>
      <point x="36.0" y="0.0"/>
      <point x="0.0" y="36.0"/>
      <point x="0.0" y="80.0" type="curve" smooth="yes"/>
      <point x="0.0" y="80.0" type="line"/>
      <point x="0.0" y="124.0"/>
      <point x="36.0" y="160.0"/>
    </contour>
  </outline>
</glyph>
<glyph name="_17" format="2">
  <advance width="200.0"/>
  <unicode hex="0111"/>
  <outline>
    <contour>
      <point x="85.0" y="170.0" type="curve" smooth="yes"/>
      <point x="115.0" y="170.0" type="line"/>
      <point x="161.75" y="170.0"/>
      <point x="200.0" y="131.75"/>
      <point x="200.0" y="85.0" type="curve" smooth="yes"/>
      <point x="200.0" y="85.0" type="line"/>
      <point x="200.0" y="38.25"/>
      <point x="161.75" y="0.0"/>
      <point x="115.0" y="0.0" type="curve" smooth="yes"/>
      <point x="85.0" y="0.0" type="line"/>
      <point x="38.25" y="0.0"/>
      <point x="0.0" y="38.25"/>
      <point x="0.0" y="85.0" type="curve" smooth="yes"/>
      <point x="0.0" y="85.0" type="line"/>
      <point x="0.0" y="131.75"/>
      <point x="38.25" y="170.0"/>
    </contour>
  </outline>
</glyph>
<glyph name="_19" format="2">
  <advance width="200.0"/>
  <unicode hex="0113"/>
  <outline>
    <contour>
      <point x="95.0" y="190.0" type="curve" smooth="yes"/>
      <point x="105.0" y="190.0" type="line"/>
      <point x="157.25" y="190.0"/>
      <point x="200.0" y="147.25"/>
      <point x="200.0" y="95.0" type="curve" smooth="yes"/>
      <point x="200.0" y="95.0" type="line"/>
      <point x="200.0" y="42.75"/>
      <point x="157.25" y="0.0"/>
      <point x="105.0" y="0.0" type="curve" smooth="yes"/>
      <point x="95.0" y="0.0" type="line"/>
      <point x="42.75" y="0.0"/>
      <point x="0.0" y="42.75"/>
      <point x="0.0" y="95.0" type="curve" smooth="yes"/>
      <point x="0.0" y="95.0" type="line"/>
      <point x="0.0" y="147.25"/>
      <point x="42.75" y="190.0"/>
    </contour>
  </outline>
</glyph>
<glyph name="_20" format="2">
  <advance width="200.0"/>
  <unicode hex="0114"/>
  <unicode hex="0032"/>
  <unicode hex="006B"/>
  <outline>
    <contour>
      <point x="100.0" y="200.0" type="curve" smooth="yes"/>
      <point x="100.0" y="200.0" type="line"/>
      <point x="155.20408163265307" y="200.0"/>
      <point x="200.0" y="155.0"/>
      <point x="200.0" y="100.0" type="curve" smooth="yes"/>
      <point x="200.0" y="100.0" type="line"/>
      <point x="200.0" y="44.0"/>
      <point x="155.20408163265307" y="0.0"/>
      <point x="100.0" y="0.0" type="curve" smooth="yes"/>
      <point x="100.0" y="0.0" type="line"/>
      <point x="44.0" y="0.0"/>
      <point x="0.0" y="44.0"/>
      <point x="0.0" y="100.0" type="curve" smooth="yes"/>
      <point x="0.0" y="100.0" type="line"/>
      <point x="0.0" y="155.0"/>
      <point x="44.0" y="200.0"/>
    </contour>
  </outline>
</glyph>
<glyph name="_22" format="2">
  <advance width="200.0"/>
  <unicode hex="0116"/>
  <unicode hex="006C"/>
  <outline>
    <contour>
      <point x="0.0" y="100.10204081632654" type="line"/>
      <point x="0.0" y="120.10204081632654" type="line"/>
      <point x="200.0" y="120.10204081632654" type="line"/>
      <point x="200.0" y="100.10204081632654" type="line"/>
    </contour>
    <component base="cap"/>
    <component base="cap" yOffset="20.0"/>
  </outline>
</glyph>
<glyph name="_24" format="2">
  <advance width="200.0"/>
  <unicode hex="0118"/>
  <unicode hex="006D"/>
  <outline>
    <contour>
      <point x="0.0" y="100.10204081632654" type="line"/>
      <point x="0.0" y="140.10204081632654" type="line"/>
      <point x="200.0" y="140.10204081632654" type="line"/>
      <point x="200.0" y="100.10204081632654" type="line"/>
    </contour>
    <component base="cap"/>
    <component base="cap" yOffset="40.0"/>
  </outline>
</glyph>
<glyph name="_25" format="2">
  <advance width="200.0"/>
  <unicode hex="0119"/>
  <outline>
    <contour>
      <point x="0.0" y="100.10204081632654" type="line"/>
      <point x="0.0" y="150.10204081632654" type="line"/>
      <point x="200.0" y="150.10204081632654" type="line"/>
      <point x="200.0" y="100.10204081632654" type="line"/>
    </contour>
    <component base="cap"/>
    <component base="cap" yOffset="50.0"/>
  </outline>
</glyph>
<glyph name="_26" format="2">
  <advance width="200.0"/>
  <unicode hex="011A"/>
  <unicode hex="006E"/>
  <outline>
    <contour>
      <point x="0.0" y="100.10204081632654" type="line"/>
      <point x="0.0" y="160.10204081632654" type="line"/>
      <point x="200.0" y="160.10204081632654" type="line"/>
      <point x="200.0" y="100.10204081632654" type="line"/>
    </contour>
    <component base="cap"/>
    <component base="cap" yOffset="60.0"/>
  </outline>
</glyph>
<glyph name="_27" format="2">
  <advance width="200.0"/>
  <unicode hex="011B"/>
  <outline>
    <contour>
      <point x="0.0" y="100.10204081632654" type="line"/>
      <point x="0.0" y="170.10204081632654" type="line"/>
      <point x="200.0" y="170.10204081632654" type="line"/>
      <point x="200.0" y="100.10204081632654" type="line"/>
    </contour>
    <component base="cap"/>
    <component base="cap" yOffset="70.0"/>
  </outline>
</glyph>
<glyph name="_28" format="2">
  <advance width="200.0"/>
  <unicode hex="011C"/>
  <unicode hex="2583"/>
  <unicode hex="006F"/>
  <outline>
    <contour>
      <point x="0.0" y="100.10204081632654" type="line"/>
      <point x="0.0" y="180.10204081632654" type="line"/>
      <point x="200.0" y="180.10204081632654" type="line"/>
      <point x="200.0" y="100.10204081632654" type="line"/>
    </contour>
    <component base="cap"/>
    <component base="cap" yOffset="80.0"/>
  </outline>
</glyph>
<glyph name="_29" format="2">
  <advance width="200.0"/>
  <unicode hex="011D"/>
  <outline>
    <contour>
      <point x="0.0" y="100.10204081632654" type="line"/>
      <point x="0.0" y="190.10204081632654" type="line"/>
      <point x="200.0" y="190.10204081632654" type="line"/>
      <point x="200.0" y="100.10204081632654" type="line"/>
    </contour>
    <component base="cap"/>
    <component base="cap" yOffset="90.0"/>
  </outline>
</glyph>
<glyph name="_30" format="2">
  <advance width="200.0"/>
  <unicode hex="011E"/>
  <unicode hex="0033"/>
  <unicode hex="0070"/>
  <outline>
    <contour>
      <point x="0.0" y="100.10204081632654" type="line"/>
      <point x="0.0" y="200.10204081632654" type="line"/>
      <point x="200.0" y="200.10204081632654" type="line"/>
      <point x="200.0" y="100.10204081632654" type="line"/>
    </contour>
    <component base="cap"/>
    <component base="cap" yOffset="100.0"/>
  </outline>
</glyph>
<glyph name="_31" format="2">
  <advance width="200.0"/>
  <unicode hex="011F"/>
  <outline>
    <contour>
      <point x="0.0" y="100.10204081632654" type="line"/>
      <point x="0.0" y="210.10204081632654" type="line"/>
      <point x="200.0" y="210.10204081632654" type="line"/>
      <point x="200.0" y="100.10204081632654" type="line"/>
    </contour>
    <component base="cap"/>
    <component base="cap" yOffset="110.0"/>
  </outline>
</glyph>
<glyph name="_35" format="2">
  <advance width="200.0"/>
  <unicode hex="0123"/>
  <outline>
    <contour>
      <point x="0.0" y="100.10204081632654" type="line"/>
      <point x="0.0" y="250.10204081632654" type="line"/>
      <point x="200.0" y="250.10204081632654" type="line"/>
      <point x="200.0" y="100.10204081632654" type="line"/>
    </contour>
    <component base="cap"/>
    <component base="cap" yOffset="150.0"/>
  </outline>
</glyph>
<glyph name="_36" format="2">
  <advance width="200.0"/>
  <unicode hex="0124"/>
  <unicode hex="0073"/>
  <outline>
    <contour>
      <point x="0.0" y="100.10204081632654" type="line"/>
      <point x="0.0" y="260.1020408163265" type="line"/>
      <point x="200.0" y="260.1020408163265" type="line"/>
      <point x="200.0" y="100.10204081632654" type="line"/>
    </contour>
    <component base="cap"/>
    <component base="cap" yOffset="160.0"/>
  </outline>
</glyph>
<glyph name="_38" format="2">
  <advance width="200.0"/>
  <unicode hex="0126"/>
  <unicode hex="0074"/>
  <outline>
    <contour>
      <point x="0.0" y="100.10204081632654" type="line"/>
      <point x="0.0" y="280.1020408163265" type="line"/>
      <point x="200.0" y="280.1020408163265" type="line"/>
      <point x="200.0" y="100.10204081632654" type="line"/>
    </contour>
    <component base="cap"/>
    <component base="cap" yOffset="180.0"/>
  </outline>
</glyph>
<glyph name="_39" format="2">
  <advance width="200.0"/>
  <unicode hex="0127"/>
  <outline>
    <contour>
      <point x="0.0" y="100.10204081632654" type="line"/>
      <point x="0.0" y="290.1020408163265" type="line"/>
      <point x="200.0" y="290.1020408163265" type="line"/>
      <point x="200.0" y="100.10204081632654" type="line"/>
    </contour>
    <component base="cap"/>
    <component base="cap" yOffset="190.0"/>
  </outline>
</glyph>
<glyph name="_42" format="2">
  <advance width="200.0"/>
  <unicode hex="012A"/>
  <unicode hex="2584"/>
  <unicode hex="0076"/>
  <outline>
    <contour>
      <point x="0.0" y="100.10204081632654" type="line"/>
      <point x="0.0" y="320.1020408163265" type="line"/>
      <point x="200.0" y="320.1020408163265" type="line"/>
      <point x="200.0" y="100.10204081632654" type="line"/>
    </contour>
    <component base="cap"/>
    <component base="cap" yOffset="220.0"/>
  </outline>
</glyph>
<glyph name="_43" format="2">
  <advance width="200.0"/>
  <unicode hex="012B"/>
  <outline>
    <contour>
      <point x="0.0" y="100.10204081632654" type="line"/>
      <point x="0.0" y="330.1020408163265" type="line"/>
      <point x="200.0" y="330.1020408163265" type="line"/>
      <point x="200.0" y="100.10204081632654" type="line"/>
    </contour>
    <component base="cap"/>
    <component base="cap" yOffset="230.0"/>
  </outline>
</glyph>
<glyph name="_46" format="2">
  <advance width="200.0"/>
  <unicode hex="012E"/>
  <unicode hex="0078"/>
  <outline>
    <contour>
      <point x="0.0" y="100.10204081632654" type="line"/>
      <point x="0.0" y="360.1020408163265" type="line"/>
      <point x="200.0" y="360.1020408163265" type="line"/>
      <point x="200.0" y="100.10204081632654" type="line"/>
    </contour>
    <component base="cap"/>
    <component base="cap" yOffset="260.0"/>
  </outline>
</glyph>
<glyph name="_50" format="2">
  <advance width="200.0"/>
  <unicode hex="0132"/>
  <unicode hex="0035"/>
  <unicode hex="007A"/>
  <outline>
    <contour>
      <point x="0.0" y="100.10204081632654" type="line"/>
      <point x="0.0" y="400.1020408163265" type="line"/>
      <point x="200.0" y="400.1020408163265" type="line"/>
      <point x="200.0" y="100.10204081632654" type="line"/>
    </contour>
    <component base="cap"/>
    <component base="cap" yOffset="300.0"/>
  </outline>
</glyph>
<glyph name="_51" format="2">
  <advance width="200.0"/>
  <unicode hex="0133"/>
  <outline>
    <contour>
      <point x="0.0" y="100.10204081632654" type="line"/>
      <point x="0.0" y="410.1020408163265" type="line"/>
      <point x="200.0" y="410.1020408163265" type="line"/>
      <point x="200.0" y="100.10204081632654" type="line"/>
    </contour>
    <component base="cap"/>
    <component base="cap" yOffset="310.0"/>
  </outline>
</glyph>
<glyph name="_53" format="2">
  <advance width="200.0"/>
  <unicode hex="0135"/>
  <outline>
    <contour>
      <point x="0.0" y="100.10204081632654" type="line"/>
      <point x="0.0" y="430.1020408163265" type="line"/>
      <point x="200.0" y="430.1020408163265" type="line"/>
      <point x="200.0" y="100.10204081632654" type="line"/>
    </contour>
    <component base="cap"/>
    <component base="cap" yOffset="330.0"/>
  </outline>
</glyph>
<glyph name="_56" format="2">
  <advance width="200.0"/>
  <unicode hex="0138"/>
  <unicode hex="2585"/>
  <unicode hex="0043"/>
  <outline>
    <contour>
      <point x="0.0" y="100.10204081632654" type="line"/>
      <point x="0.0" y="460.1020408163265" type="line"/>
      <point x="200.0" y="460.1020408163265" type="line"/>
      <point x="200.0" y="100.10204081632654" type="line"/>
    </contour>
    <component base="cap"/>
    <component base="cap" yOffset="360.0"/>
  </outline>
</glyph>
<glyph name="_58" format="2">
  <advance width="200.0"/>
  <unicode hex="013A"/>
  <unicode hex="0044"/>
  <outline>
    <contour>
      <point x="0.0" y="100.10204081632654" type="line"/>
      <point x="0.0" y="480.1020408163265" type="line"/>
      <point x="200.0" y="480.1020408163265" type="line"/>
      <point x="200.0" y="100.10204081632654" type="line"/>
    </contour>
    <component base="cap"/>
    <component base="cap" yOffset="380.0"/>
  </outline>
</glyph>
<glyph name="_62" format="2">
  <advance width="200.0"/>
  <unicode hex="013E"/>
  <unicode hex="0046"/>
  <outline>
    <contour>
      <point x="0.0" y="100.10204081632654" type="line"/>
      <point x="0.0" y="520.1020408163265" type="line"/>
      <point x="200.0" y="520.1020408163265" type="line"/>
      <point x="200.0" y="100.10204081632654" type="line"/>
    </contour>
    <component base="cap"/>
    <component base="cap" yOffset="420.0"/>
  </outline>
</glyph>
<glyph name="_64" format="2">
  <advance width="200.0"/>
  <unicode hex="0140"/>
  <unicode hex="0047"/>
  <outline>
    <contour>
      <point x="0.0" y="100.10204081632654" type="line"/>
      <point x="0.0" y="540.1020408163265" type="line"/>
      <point x="200.0" y="540.1020408163265" type="line"/>
      <point x="200.0" y="100.10204081632654" type="line"/>
    </contour>
    <component base="cap"/>
    <component base="cap" yOffset="440.0"/>
  </outline>
</glyph>
<glyph name="_66" format="2">
  <advance width="200.0"/>
  <unicode hex="0142"/>
  <unicode hex="0048"/>
  <outline>
    <contour>
      <point x="0.0" y="100.10204081632654" type="line"/>
      <point x="0.0" y="560.1020408163265" type="line"/>
      <point x="200.0" y="560.1020408163265" type="line"/>
      <point x="200.0" y="100.10204081632654" type="line"/>
    </contour>
    <component base="cap"/>
    <component base="cap" yOffset="460.0"/>
  </outline>
</glyph>
<glyph name="_68" format="2">
  <advance width="200.0"/>
  <unicode hex="0144"/>
  <unicode hex="0049"/>
  <outline>
    <contour>
      <point x="0.0" y="100.10204081632654" type="line"/>
      <point x="0.0" y="580.1020408163265" type="line"/>
      <point x="200.0" y="580.1020408163265" type="line"/>
      <point x="200.0" y="100.10204081632654" type="line"/>
    </contour>
    <component base="cap"/>
    <component base="cap" yOffset="480.0"/>
  </outline>
</glyph>
<glyph name="_70" format="2">
  <advance width="200.0"/>
  <unicode hex="0146"/>
  <unicode hex="0037"/>
  <unicode hex="004A"/>
  <outline>
    <contour>
      <point x="0.0" y="100.10204081632654" type="line"/>
      <point x="0.0" y="600.1020408163265" type="line"/>
      <point x="200.0" y="600.1020408163265" type="line"/>
      <point x="200.0" y="100.10204081632654" type="line"/>
    </contour>
    <component base="cap"/>
    <component base="cap" yOffset="500.0"/>
  </outline>
</glyph>
<glyph name="_72" format="2">
  <advance width="200.0"/>
  <unicode hex="0148"/>
  <unicode hex="2586"/>
  <unicode hex="004B"/>
  <outline>
    <contour>
      <point x="0.0" y="100.10204081632654" type="line"/>
      <point x="0.0" y="620.1020408163265" type="line"/>
      <point x="200.0" y="620.1020408163265" type="line"/>
      <point x="200.0" y="100.10204081632654" type="line"/>
    </contour>
    <component base="cap"/>
    <component base="cap" yOffset="520.0"/>
  </outline>
</glyph>
<glyph name="_74" format="2">
  <advance width="200.0"/>
  <unicode hex="014A"/>
  <unicode hex="004C"/>
  <outline>
    <contour>
      <point x="0.0" y="100.10204081632654" type="line"/>
      <point x="0.0" y="640.1020408163265" type="line"/>
      <point x="200.0" y="640.1020408163265" type="line"/>
      <point x="200.0" y="100.10204081632654" type="line"/>
    </contour>
    <component base="cap"/>
    <component base="cap" yOffset="540.0"/>
  </outline>
</glyph>
<glyph name="_76" format="2">
  <advance width="200.0"/>
  <unicode hex="014C"/>
  <unicode hex="004D"/>
  <outline>
    <contour>
      <point x="0.0" y="100.10204081632654" type="line"/>
      <point x="0.0" y="660.1020408163265" type="line"/>
      <point x="200.0" y="660.1020408163265" type="line"/>
      <point x="200.0" y="100.10204081632654" type="line"/>
    </contour>
    <component base="cap"/>
    <component base="cap" yOffset="560.0"/>
  </outline>
</glyph>
<glyph name="_77" format="2">
  <advance width="200.0"/>
  <unicode hex="014D"/>
  <outline>
    <contour>
      <point x="0.0" y="100.10204081632654" type="line"/>
      <point x="0.0" y="670.1020408163265" type="line"/>
      <point x="200.0" y="670.1020408163265" type="line"/>
      <point x="200.0" y="100.10204081632654" type="line"/>
    </contour>
    <component base="cap"/>
    <component base="cap" yOffset="570.0"/>
  </outline>
</glyph>
<glyph name="_78" format="2">
  <advance width="200.0"/>
  <unicode hex="014E"/>
  <unicode hex="004E"/>
  <outline>
    <contour>
      <point x="0.0" y="100.10204081632654" type="line"/>
      <point x="0.0" y="680.1020408163265" type="line"/>
      <point x="200.0" y="680.1020408163265" type="line"/>
      <point x="200.0" y="100.10204081632654" type="line"/>
    </contour>
    <component base="cap"/>
    <component base="cap" yOffset="580.0"/>
  </outline>
</glyph>
<glyph name="_79" format="2">
  <advance width="200.0"/>
  <unicode hex="014F"/>
  <outline>
    <contour>
      <point x="0.0" y="100.10204081632654" type="line"/>
      <point x="0.0" y="690.1020408163265" type="line"/>
      <point x="200.0" y="690.1020408163265" type="line"/>
      <point x="200.0" y="100.10204081632654" type="line"/>
    </contour>
    <component base="cap"/>
    <component base="cap" yOffset="590.0"/>
  </outline>
</glyph>
<glyph name="_81" format="2">
  <advance width="200.0"/>
  <unicode hex="0151"/>
  <outline>
    <contour>
      <point x="0.0" y="100.10204081632654" type="line"/>
      <point x="0.0" y="710.1020408163265" type="line"/>
      <point x="200.0" y="710.1020408163265" type="line"/>
      <point x="200.0" y="100.10204081632654" type="line"/>
    </contour>
    <component base="cap"/>
    <component base="cap" yOffset="610.0"/>
  </outline>
</glyph>
<glyph name="_82" format="2">
  <advance width="200.0"/>
  <unicode hex="0152"/>
  <unicode hex="0050"/>
  <outline>
    <contour>
      <point x="0.0" y="100.10204081632654" type="line"/>
      <point x="0.0" y="720.1020408163265" type="line"/>
      <point x="200.0" y="720.1020408163265" type="line"/>
      <point x="200.0" y="100.10204081632654" type="line"/>
    </contour>
    <component base="cap"/>
    <component base="cap" yOffset="620.0"/>
  </outline>
</glyph>
<glyph name="_84" format="2">
  <advance width="200.0"/>
  <unicode hex="0154"/>
  <unicode hex="0051"/>
  <outline>
    <contour>
      <point x="0.0" y="100.10204081632654" type="line"/>
      <point x="0.0" y="740.1020408163265" type="line"/>
      <point x="200.0" y="740.1020408163265" type="line"/>
      <point x="200.0" y="100.10204081632654" type="line"/>
    </contour>
    <component base="cap"/>
    <component base="cap" yOffset="640.0"/>
  </outline>
</glyph>
<glyph name="_86" format="2">
  <advance width="200.0"/>
  <unicode hex="0156"/>
  <unicode hex="2587"/>
  <unicode hex="0052"/>
  <outline>
    <contour>
      <point x="0.0" y="100.10204081632654" type="line"/>
      <point x="0.0" y="760.1020408163265" type="line"/>
      <point x="200.0" y="760.1020408163265" type="line"/>
      <point x="200.0" y="100.10204081632654" type="line"/>
    </contour>
    <component base="cap"/>
    <component base="cap" yOffset="660.0"/>
  </outline>
</glyph>
<glyph name="_89" format="2">
  <advance width="200.0"/>
  <unicode hex="0159"/>
  <outline>
    <contour>
      <point x="0.0" y="100.10204081632654" type="line"/>
      <point x="0.0" y="790.1020408163265" type="line"/>
      <point x="200.0" y="790.1020408163265" type="line"/>
      <point x="200.0" y="100.10204081632654" type="line"/>
    </contour>
    <component base="cap"/>
    <component base="cap" yOffset="690.0"/>
  </outline>
</glyph>
<glyph name="_90" format="2">
  <advance width="200.0"/>
  <unicode hex="015A"/>
  <unicode hex="0039"/>
  <unicode hex="0054"/>
  <outline>
    <contour>
      <point x="0.0" y="100.10204081632654" type="line"/>
      <point x="0.0" y="800.1020408163265" type="line"/>
      <point x="200.0" y="800.1020408163265" type="line"/>
      <point x="200.0" y="100.10204081632654" type="line"/>
    </contour>
    <component base="cap"/>
    <component base="cap" yOffset="700.0"/>
  </outline>
</glyph>
<glyph name="_91" format="2">
  <advance width="200.0"/>
  <unicode hex="015B"/>
  <outline>
    <contour>
      <point x="0.0" y="100.10204081632654" type="line"/>
      <point x="0.0" y="810.1020408163265" type="line"/>
      <point x="200.0" y="810.1020408163265" type="line"/>
      <point x="200.0" y="100.10204081632654" type="line"/>
    </contour>
    <component base="cap"/>
    <component base="cap" yOffset="710.0"/>
  </outline>
</glyph>
<glyph name="_92" format="2">
  <advance width="200.0"/>
  <unicode hex="015C"/>
  <unicode hex="0055"/>
  <outline>
    <contour>
      <point x="0.0" y="100.10204081632654" type="line"/>
      <point x="0.0" y="820.1020408163265" type="line"/>
      <point x="200.0" y="820.1020408163265" type="line"/>
      <point x="200.0" y="100.10204081632654" type="line"/>
    </contour>
    <component base="cap"/>
    <component base="cap" yOffset="720.0"/>
  </outline>
</glyph>
<glyph name="_95" format="2">
  <advance width="200.0"/>
  <unicode hex="015F"/>
  <outline>
    <contour>
      <point x="0.0" y="100.10204081632654" type="line"/>
      <point x="0.0" y="850.1020408163265" type="line"/>
      <point x="200.0" y="850.1020408163265" type="line"/>
      <point x="200.0" y="100.10204081632654" type="line"/>
    </contour>
    <component base="cap"/>
    <component base="cap" yOffset="750.0"/>
  </outline>
</glyph>
<glyph name="_98" format="2">
  <advance width="200.0"/>
  <unicode hex="0162"/>
  <unicode hex="0058"/>
  <outline>
    <contour>
      <point x="0.0" y="100.10204081632654" type="line"/>
      <point x="0.0" y="880.1020408163265" type="line"/>
      <point x="200.0" y="880.1020408163265" type="line"/>
      <point x="200.0" y="100.10204081632654" type="line"/>
    </contour>
    <component base="cap"/>
    <component base="cap" yOffset="780.0"/>
  </outline>
</glyph>
<glyph name="_99" format="2">
  <advance width="200.0"/>
  <unicode hex="0163"/>
  <unicode hex="0059"/>
  <outline>
    <contour>
      <point x="0.0" y="100.10204081632654" type="line"/>
      <point x="0.0" y="890.1020408163265" type="line"/>
      <point x="200.0" y="890.1020408163265" type="line"/>
      <point x="200.0" y="100.10204081632654" type="line"/>
    </contour>
    <component base="cap"/>
    <component base="cap" yOffset="790.0"/>
  </outline>
</glyph>
<glyph name="_100" format="2">
  <advance width="200.0"/>
  <unicode hex="0164"/>
  <unicode hex="007C"/>
  <unicode hex="2588"/>
  <unicode hex="005A"/>
  <outline>
    <contour>
      <point x="0.0" y="100.10204081632654" type="line"/>
      <point x="0.0" y="900.1020408163265" type="line"/>
      <point x="200.0" y="900.1020408163265" type="line"/>
      <point x="200.0" y="100.10204081632654" type="line"/>
    </contour>
    <component base="cap"/>
    <component base="cap" yOffset="800.0"/>
  </outline>
</glyph>
<glyph name="_102" format="2">
  <advance width="200.0"/>
  <unicode hex="0166"/>
  <outline>
    <contour>
      <point x="0.0" y="100.10204081632654" type="line"/>
      <point x="0.0" y="920.1020408163265" type="line"/>
      <point x="200.0" y="920.1020408163265" type="line"/>
      <point x="200.0" y="100.10204081632654" type="line"/>
    </contour>
    <component base="cap"/>
    <component base="cap" yOffset="820.0"/>
  </outline>
</glyph>
<glyph name="_103" format="2">
  <advance width="200.0"/>
  <unicode hex="0167"/>
  <outline>
    <contour>
      <point x="0.0" y="100.10204081632654" type="line"/>
      <point x="0.0" y="930.1020408163265" type="line"/>
      <point x="200.0" y="930.1020408163265" type="line"/>
      <point x="200.0" y="100.10204081632654" type="line"/>
    </contour>
    <component base="cap"/>
    <component base="cap" yOffset="830.0"/>
  </outline>
</glyph>
<glyph name="_105" format="2">
  <advance width="200.0"/>
  <unicode hex="0169"/>
  <outline>
    <contour>
      <point x="0.0" y="100.10204081632654" type="line"/>
      <point x="0.0" y="950.1020408163265" type="line"/>
      <point x="200.0" y="950.1020408163265" type="line"/>
      <point x="200.0" y="100.10204081632654" type="line"/>
    </contour>
    <component base="cap"/>
    <component base="cap" yOffset="850.0"/>
  </outline>
</glyph>
<glyph name="_106" format="2">
  <advance width="200.0"/>
  <unicode hex="016A"/>
  <outline>
    <contour>
      <point x="0.0" y="100.10204081632654" type="line"/>
      <point x="0.0" y="960.1020408163265" type="line"/>
      <point x="200.0" y="960.1020408163265" type="line"/>
      <point x="200.0" y="100.10204081632654" type="line"/>
    </contour>
    <component base="cap"/>
    <component base="cap" yOffset="860.0"/>
  </outline>
</glyph>
<glyph name="_107" format="2">
  <advance width="200.0"/>
  <unicode hex="016B"/>
  <outline>
    <contour>
      <point x="0.0" y="100.10204081632654" type="line"/>
      <point x="0.0" y="970.1020408163265" type="line"/>
      <point x="200.0" y="970.1020408163265" type="line"/>
      <point x="200.0" y="100.10204081632654" type="line"/>
    </contour>
    <component base="cap"/>
    <component base="cap" yOffset="870.0"/>
  </outline>
</glyph>
<glyph name="_108" format="2">
  <advance width="200.0"/>
  <unicode hex="016C"/>
  <outline>
    <contour>
      <point x="0.0" y="100.10204081632654" type="line"/>
      <point x="0.0" y="980.1020408163265" type="line"/>
      <point x="200.0" y="980.1020408163265" type="line"/>
      <point x="200.0" y="100.10204081632654" type="line"/>
    </contour>
    <component base="cap"/>
    <component base="cap" yOffset="880.0"/>
  </outline>
</glyph>
<glyph name="_115" format="2">
  <advance width="200.0"/>
  <unicode hex="0173"/>
  <outline>
    <contour>
      <point x="0.0" y="100.10204081632654" type="line"/>
      <point x="0.0" y="1050.1020408163265" type="line"/>
      <point x="200.0" y="1050.1020408163265" type="line"/>
      <point x="200.0" y="100.10204081632654" type="line"/>
    </contour>
    <component base="cap"/>
    <component base="cap" yOffset="950.0"/>
  </outline>
</glyph>
<glyph name="_119" format="2">
  <advance width="200.0"/>
  <unicode hex="0177"/>
  <outline>
    <contour>
      <point x="0.0" y="100.10204081632654" type="line"/>
      <point x="0.0" y="1090.1020408163265" type="line"/>
      <point x="200.0" y="1090.1020408163265" type="line"/>
      <point x="200.0" y="100.10204081632654" type="line"/>
    </contour>
    <component base="cap"/>
    <component base="cap" yOffset="990.0"/>
  </outline>
</glyph>
<glyph name="_121" format="2">
  <advance width="200.0"/>
  <unicode hex="0179"/>
  <outline>
    <contour>
      <point x="0.0" y="100.10204081632654" type="line"/>
      <point x="0.0" y="1110.1020408163265" type="line"/>
      <point x="200.0" y="1110.1020408163265" type="line"/>
      <point x="200.0" y="100.10204081632654" type="line"/>
    </contour>
    <component base="cap"/>
    <component base="cap" yOffset="1010.0"/>
  </outline>
</glyph>
<glyph name="_122" format="2">
  <advance width="200.0"/>
  <unicode hex="017A"/>
  <outline>
    <contour>
      <point x="0.0" y="100.10204081632654" type="line"/>
      <point x="0.0" y="1120.1020408163265" type="line"/>
      <point x="200.0" y="1120.1020408163265" type="line"/>
      <point x="200.0" y="100.10204081632654" type="line"/>
    </contour>
    <component base="cap"/>
    <component base="cap" yOffset="1020.0"/>
  </outline>
</glyph>
<glyph name="_123" format="2">
  <advance width="200.0"/>
  <unicode hex="017B"/>
  <outline>
    <contour>
      <point x="0.0" y="100.10204081632654" type="line"/>
      <point x="0.0" y="1130.1020408163265" type="line"/>
      <point x="200.0" y="1130.1020408163265" type="line"/>
      <point x="200.0" y="100.10204081632654" type="line"/>
    </contour>
    <component base="cap"/>
    <component base="cap" yOffset="1030.0"/>
  </outline>
</glyph>
<glyph name="_126" format="2">
  <advance width="200.0"/>
  <unicode hex="017E"/>
  <outline>
    <contour>
      <point x="0.0" y="100.10204081632654" type="line"/>
      <point x="0.0" y="1160.1020408163265" type="line"/>
      <point x="200.0" y="1160.1020408163265" type="line"/>
      <point x="200.0" y="100.10204081632654" type="line"/>
    </contour>
    <component base="cap"/>
    <component base="cap" yOffset="1060.0"/>
  </outline>
</glyph>
<glyph name="_127" format="2">
  <advance width="200.0"/>
  <unicode hex="017F"/>
  <outline>
    <contour>
      <point x="0.0" y="100.10204081632654" type="line"/>
      <point x="0.0" y="1170.1020408163265" type="line"/>
      <point x="200.0" y="1170.1020408163265" type="line"/>
      <point x="200.0" y="100.10204081632654" type="line"/>
    </contour>
    <component base="cap"/>
    <component base="cap" yOffset="1070.0"/>
  </outline>
</glyph>
<glyph name="_11.clip" format="2">
  <advance width="200.0"/>
  <outline>
    <contour>
      <point x="0.0" y="100.10204081632654" type="line"/>
      <point x="0.0" y="10.102040816326536" type="line"/>
      <point x="200.0" y="10.102040816326536" type="line"/>
      <point x="200.0" y="100.10204081632654" type="line"/>
    </contour>
    <component base="cap"/>
    <component base="cap" yOffset="-90.0"/>
  </outline>
</glyph>
<glyph name="_13.clip" format="2">
  <advance width="200.0"/>
  <outline>
    <contour>
      <point x="0.0" y="100.10204081632654" type="line"/>
      <point x="0.0" y="30.102040816326536" type="line"/>
      <point x="200.0" y="30.102040816326536" type="line"/>
      <point x="200.0" y="100.10204081632654" type="line"/>
    </contour>
    <component base="cap"/>
    <component base="cap" yOffset="-70.0"/>
  </outline>
</glyph>
<glyph name="_14.clip" format="2">
  <advance width="200.0"/>
  <outline>
    <contour>
      <point x="0.0" y="100.10204081632654" type="line"/>
      <point x="0.0" y="40.102040816326536" type="line"/>
      <point x="200.0" y="40.102040816326536" type="line"/>
      <point x="200.0" y="100.10204081632654" type="line"/>
    </contour>
    <component base="cap"/>
    <component base="cap" yOffset="-60.0"/>
  </outline>
</glyph>
<glyph name="_17.clip" format="2">
  <advance width="200.0"/>
  <outline>
    <contour>
      <point x="0.0" y="100.10204081632654" type="line"/>
      <point x="0.0" y="70.10204081632654" type="line"/>
      <point x="200.0" y="70.10204081632654" type="line"/>
      <point x="200.0" y="100.10204081632654" type="line"/>
    </contour>
    <component base="cap"/>
    <component base="cap" yOffset="-30.0"/>
  </outline>
</glyph>
<glyph name="_19.clip" format="2">
  <advance width="200.0"/>
  <outline>
    <contour>
      <point x="0.0" y="100.10204081632654" type="line"/>
      <point x="0.0" y="90.10204081632654" type="line"/>
      <point x="200.0" y="90.10204081632654" type="line"/>
      <point x="200.0" y="100.10204081632654" type="line"/>
    </contour>
    <component base="cap"/>
    <component base="cap" yOffset="-10.0"/>
  </outline>
</glyph>
<glyph name="_2.clip" format="2">
  <advance width="200.0"/>
  <outline>
    <contour>
      <point x="0.0" y="100.10204081632654" type="line"/>
      <point x="0.0" y="-79.89795918367346" type="line"/>
      <point x="200.0" y="-79.89795918367346" type="line"/>
      <point x="200.0" y="100.10204081632654" type="line"/>
    </contour>
    <component base="cap"/>
    <component base="cap" yOffset="-180.0"/>
  </outline>
</glyph>
<glyph name="_22.clip" format="2">
  <advance width="200.0"/>
  <outline>
    <contour>
      <point x="110.0" y="220.0" type="curve" smooth="yes"/>
      <point x="90.0" y="220.0" type="line"/>
      <point x="150.5" y="220.0"/>
      <point x="200.0" y="170.5"/>
      <point x="200.0" y="110.0" type="curve" smooth="yes"/>
      <point x="200.0" y="110.0" type="line"/>
      <point x="200.0" y="49.5"/>
      <point x="150.5" y="0.0"/>
      <point x="90.0" y="0.0" type="curve" smooth="yes"/>
      <point x="110.0" y="0.0" type="line"/>
      <point x="49.5" y="0.0"/>
      <point x="0.0" y="49.5"/>
      <point x="0.0" y="110.0" type="curve" smooth="yes"/>
      <point x="0.0" y="110.0" type="line"/>
      <point x="0.0" y="170.5"/>
      <point x="49.5" y="220.0"/>
    </contour>
  </outline>
</glyph>
<glyph name="_5.clip" format="2">
  <advance width="200.0"/>
  <outline>
    <contour>
      <point x="0.0" y="100.10204081632654" type="line"/>
      <point x="0.0" y="-49.897959183673464" type="line"/>
      <point x="200.0" y="-49.897959183673464" type="line"/>
      <point x="200.0" y="100.10204081632654" type="line"/>
    </contour>
    <component base="cap"/>
    <component base="cap" yOffset="-150.0"/>
  </outline>
</glyph>
<glyph name="_7.clip" format="2">
  <advance width="200.0"/>
  <outline>
    <contour>
      <point x="0.0" y="100.10204081632654" type="line"/>
      <point x="0.0" y="-29.897959183673464" type="line"/>
      <point x="200.0" y="-29.897959183673464" type="line"/>
      <point x="200.0" y="100.10204081632654" type="line"/>
    </contour>
    <component base="cap"/>
    <component base="cap" yOffset="-130.0"/>
  </outline>
</glyph>
<glyph name="_8.clip" format="2">
  <advance width="200.0"/>
  <outline>
    <contour>
      <point x="0.0" y="100.10204081632654" type="line"/>
      <point x="0.0" y="-19.897959183673464" type="line"/>
      <point x="200.0" y="-19.897959183673464" type="line"/>
      <point x="200.0" y="100.10204081632654" type="line"/>
    </contour>
    <component base="cap"/>
    <component base="cap" yOffset="-120.0"/>
  </outline>
</glyph>
<glyph name="cap" format="2">
  <outline>
    <contour>
      <point x="100.0" y="200.0" type="curve" smooth="yes"/>
      <point x="100.0" y="200.0" type="line"/>
      <point x="155.0" y="200.0"/>
      <point x="200.0" y="155.0"/>
      <point x="200.0" y="100.0" type="curve" smooth="yes"/>
      <point x="200.0" y="100.0" type="line"/>
      <point x="200.0" y="45.0"/>
      <point x="155.0" y="0.0"/>
      <point x="100.0" y="0.0" type="curve" smooth="yes"/>
      <point x="100.0" y="0.0" type="line"/>
      <point x="45.0" y="0.0"/>
      <point x="0.0" y="45.0"/>
      <point x="0.0" y="100.0" type="curve" smooth="yes"/>
      <point x="0.0" y="100.0" type="line"/>
      <point x="0.0" y="155.0"/>
      <point x="45.0" y="200.0"/>
    </contour>
  </outline>
</glyph>
